<svg width="29" height="28" viewBox="0 0 29 28" fill="none" xmlns="http://www.w3.org/2000/svg">
<path d="M23.6367 7H19.2617C19.2617 5.60761 18.7086 4.27226 17.724 3.28769C16.7395 2.30312 15.4041 1.75 14.0117 1.75C12.6193 1.75 11.284 2.30312 10.2994 3.28769C9.31484 4.27226 8.76172 5.60761 8.76172 7H4.38672C3.92259 7 3.47747 7.18437 3.14928 7.51256C2.82109 7.84075 2.63672 8.28587 2.63672 8.75V21.875C2.63672 22.3391 2.82109 22.7842 3.14928 23.1124C3.47747 23.4406 3.92259 23.625 4.38672 23.625H23.6367C24.1008 23.625 24.546 23.4406 24.8742 23.1124C25.2023 22.7842 25.3867 22.3391 25.3867 21.875V8.75C25.3867 8.28587 25.2023 7.84075 24.8742 7.51256C24.546 7.18437 24.1008 7 23.6367 7ZM14.0117 3.5C14.94 3.5 15.8302 3.86875 16.4866 4.52513C17.143 5.1815 17.5117 6.07174 17.5117 7H10.5117C10.5117 6.07174 10.8805 5.1815 11.5368 4.52513C12.1932 3.86875 13.0835 3.5 14.0117 3.5ZM23.6367 21.875H4.38672V8.75H8.76172V10.5C8.76172 10.7321 8.85391 10.9546 9.018 11.1187C9.18209 11.2828 9.40465 11.375 9.63672 11.375C9.86878 11.375 10.0913 11.2828 10.2554 11.1187C10.4195 10.9546 10.5117 10.7321 10.5117 10.5V8.75H17.5117V10.5C17.5117 10.7321 17.6039 10.9546 17.768 11.1187C17.9321 11.2828 18.1547 11.375 18.3867 11.375C18.6188 11.375 18.8413 11.2828 19.0054 11.1187C19.1695 10.9546 19.2617 10.7321 19.2617 10.5V8.75H23.6367V21.875Z" fill="#FAFBFC"/>
</svg>
