<svg width="29" height="28" viewBox="0 0 29 28" fill="none" xmlns="http://www.w3.org/2000/svg">
<path fill-rule="evenodd" clip-rule="evenodd" d="M5.84375 10.5H7.01042V16.3333H21.0104V10.5H22.1771V16.3333H23.6354C23.7128 16.3333 23.787 16.3641 23.8417 16.4188C23.8964 16.4735 23.9271 16.5476 23.9271 16.625V17.2083C23.9271 17.2857 23.8964 17.3599 23.8417 17.4146C23.787 17.4693 23.7128 17.5 23.6354 17.5H4.38542C4.30806 17.5 4.23388 17.4693 4.17918 17.4146C4.12448 17.3599 4.09375 17.2857 4.09375 17.2083V16.625C4.09375 16.5476 4.12448 16.4735 4.17918 16.4188C4.23388 16.3641 4.30806 16.3333 4.38542 16.3333H5.84375V10.5ZM5.84375 19.8333V23.3333H22.1771V19.8333H5.84375ZM5.26042 18.6667C5.10571 18.6667 4.95733 18.7281 4.84794 18.8375C4.73854 18.9469 4.67708 19.0953 4.67708 19.25V23.9167C4.67708 24.0714 4.73854 24.2197 4.84794 24.3291C4.95733 24.4385 5.10571 24.5 5.26042 24.5H22.7604C22.9151 24.5 23.0635 24.4385 23.1729 24.3291C23.2823 24.2197 23.3438 24.0714 23.3438 23.9167V19.25C23.3438 19.0953 23.2823 18.9469 23.1729 18.8375C23.0635 18.7281 22.9151 18.6667 22.7604 18.6667H5.26042Z" fill="#FAFBFC"/>
<path fill-rule="evenodd" clip-rule="evenodd" d="M5.9553 4.66667L4.70405 8.11592C4.68721 8.16209 4.67853 8.21085 4.67839 8.26V9.65417C4.67839 10.1261 5.0558 10.5 5.51197 10.5C5.96697 10.5 6.34497 10.1267 6.34497 9.65475C6.34497 9.50004 6.40643 9.35167 6.51582 9.24227C6.62522 9.13287 6.77359 9.07142 6.9283 9.07142C7.08301 9.07142 7.23139 9.13287 7.34078 9.24227C7.45018 9.35167 7.51164 9.50004 7.51164 9.65475C7.51024 9.87733 7.59724 10.0914 7.75354 10.2499C7.90983 10.4083 8.12264 10.4983 8.34522 10.5C8.80022 10.5 9.17822 10.1267 9.17822 9.65475C9.17822 9.50004 9.23968 9.35167 9.34907 9.24227C9.45847 9.13287 9.60684 9.07142 9.76155 9.07142C9.91626 9.07142 10.0646 9.13287 10.174 9.24227C10.2834 9.35167 10.3449 9.50004 10.3449 9.65475C10.3435 9.87733 10.4305 10.0914 10.5868 10.2499C10.7431 10.4083 10.9559 10.4983 11.1785 10.5C11.6335 10.5 12.0115 10.1267 12.0115 9.65533C12.0115 9.50062 12.0729 9.35225 12.1823 9.24285C12.2917 9.13346 12.4401 9.072 12.5948 9.072C12.7495 9.072 12.8979 9.13346 13.0073 9.24285C13.1167 9.35225 13.1781 9.50062 13.1781 9.65533C13.1787 10.1267 13.5567 10.5 14.0117 10.5C14.4667 10.5 14.8453 10.1267 14.8453 9.65475C14.8453 9.50004 14.9068 9.35167 15.0162 9.24227C15.1256 9.13287 15.2739 9.07142 15.4286 9.07142C15.5833 9.07142 15.7317 9.13287 15.8411 9.24227C15.9505 9.35167 16.012 9.50004 16.012 9.65475C16.012 10.1261 16.3894 10.5 16.845 10.5C17.3 10.5 17.678 10.1267 17.6786 9.65533C17.6786 9.50062 17.74 9.35225 17.8494 9.24285C17.9588 9.13346 18.1072 9.072 18.2619 9.072C18.4166 9.072 18.565 9.13346 18.6744 9.24285C18.7838 9.35225 18.8452 9.50062 18.8452 9.65533C18.8452 10.1267 19.2232 10.5 19.6782 10.5C20.1338 10.5 20.5118 10.1267 20.5118 9.65475C20.5118 9.50004 20.5733 9.35167 20.6827 9.24227C20.7921 9.13287 20.9404 9.07142 21.0951 9.07142C21.2498 9.07142 21.3982 9.13287 21.5076 9.24227C21.617 9.35167 21.6785 9.50004 21.6785 9.65475C21.6785 10.1261 22.0559 10.5 22.5115 10.5C22.9676 10.5 23.3451 10.1267 23.3451 9.65475V8.26058C23.345 8.21124 23.3363 8.16228 23.3194 8.11592L22.0681 4.66667H5.9553ZM21.0951 11.0752C20.91 11.2629 20.6894 11.4118 20.4461 11.5134C20.2029 11.6149 19.9418 11.667 19.6782 11.6667C19.4147 11.667 19.1538 11.6149 18.9106 11.5133C18.6674 11.4117 18.4469 11.2628 18.2619 11.0752C18.0768 11.2629 17.8562 11.4119 17.6129 11.5134C17.3696 11.615 17.1086 11.6671 16.845 11.6667C16.5815 11.667 16.3205 11.6149 16.0773 11.5133C15.8342 11.4117 15.6137 11.2628 15.4286 11.0752C15.2435 11.2629 15.0229 11.4119 14.7797 11.5134C14.5364 11.615 14.2753 11.6671 14.0117 11.6667C13.7481 11.6671 13.487 11.615 13.2438 11.5134C13.0005 11.4119 12.7799 11.2629 12.5948 11.0752C12.4098 11.2628 12.1893 11.4117 11.9461 11.5133C11.7029 11.6149 11.442 11.667 11.1785 11.6667C10.6237 11.6667 10.1226 11.4397 9.76155 11.0752C9.57653 11.2628 9.35601 11.4117 9.11285 11.5133C8.86968 11.6149 8.60874 11.667 8.34522 11.6667C8.08161 11.667 7.82056 11.6149 7.57729 11.5134C7.33403 11.4118 7.11341 11.2629 6.9283 11.0752C6.74335 11.2627 6.52293 11.4116 6.27987 11.5132C6.03681 11.6147 5.77597 11.6669 5.51255 11.6667C4.40247 11.6667 3.51172 10.7613 3.51172 9.65475V8.26058C3.51172 8.07567 3.5438 7.89192 3.6068 7.71808L4.87847 4.21225C4.95391 4.00359 5.09184 3.82325 5.27346 3.69579C5.45509 3.56834 5.67159 3.49997 5.89347 3.5H22.1311C22.3529 3.50026 22.5692 3.56882 22.7506 3.69637C22.932 3.82391 23.0697 4.00425 23.145 4.21283L24.4166 7.71808C24.4802 7.89192 24.5123 8.07567 24.5123 8.26058V9.65475C24.5117 10.7613 23.621 11.6667 22.5115 11.6667C22.248 11.667 21.987 11.6149 21.7438 11.5133C21.5007 11.4117 21.2802 11.2628 21.0951 11.0752Z" fill="#FAFBFC"/>
<path d="M8.17969 14.875C8.17969 14.7977 8.21042 14.7235 8.26511 14.6688C8.31981 14.6141 8.394 14.5833 8.47135 14.5833H10.2214C10.2987 14.5833 10.3729 14.6141 10.4276 14.6688C10.4823 14.7235 10.513 14.7977 10.513 14.875V16.0417C10.513 16.119 10.4823 16.1932 10.4276 16.2479C10.3729 16.3026 10.2987 16.3333 10.2214 16.3333H8.47135C8.394 16.3333 8.31981 16.3026 8.26511 16.2479C8.21042 16.1932 8.17969 16.119 8.17969 16.0417V14.875Z" fill="#FAFBFC"/>
<path d="M9.34375 15.4583C9.34375 15.381 9.37448 15.3068 9.42918 15.2521C9.48388 15.1974 9.55806 15.1667 9.63542 15.1667H11.3854C11.4628 15.1667 11.537 15.1974 11.5917 15.2521C11.6464 15.3068 11.6771 15.381 11.6771 15.4583V16.0417C11.6771 16.119 11.6464 16.1932 11.5917 16.2479C11.537 16.3026 11.4628 16.3333 11.3854 16.3333H9.63542C9.55806 16.3333 9.48388 16.3026 9.42918 16.2479C9.37448 16.1932 9.34375 16.119 9.34375 16.0417V15.4583ZM14.0104 15.4583C14.0104 15.6904 13.9182 15.913 13.7541 16.0771C13.59 16.2412 13.3675 16.3333 13.1354 16.3333C12.9034 16.3333 12.6808 16.2412 12.5167 16.0771C12.3526 15.913 12.2604 15.6904 12.2604 15.4583C12.2604 15.2263 12.3526 15.0037 12.5167 14.8396C12.6808 14.6755 12.9034 14.5833 13.1354 14.5833C13.3675 14.5833 13.59 14.6755 13.7541 14.8396C13.9182 15.0037 14.0104 15.2263 14.0104 15.4583Z" fill="#FAFBFC"/>
</svg>
