<svg width="24" height="24" viewBox="0 0 24 24" fill="none" xmlns="http://www.w3.org/2000/svg">
<g id="mingcute:code-line" clip-path="url(#clip0_5515_32994)">
<g id="Group">
<path id="Vector" d="M14.4866 3.1468C14.7418 3.21859 14.9581 3.38881 15.0879 3.62003C15.2177 3.85124 15.2503 4.12453 15.1786 4.3798L10.7486 20.1678C10.7131 20.2943 10.6531 20.4125 10.572 20.5158C10.4908 20.619 10.3901 20.7053 10.2756 20.7697C10.1611 20.834 10.0351 20.8752 9.90468 20.8908C9.77427 20.9065 9.64206 20.8963 9.5156 20.8608C9.38914 20.8253 9.2709 20.7653 9.16763 20.6842C9.06436 20.603 8.97809 20.5023 8.91374 20.3878C8.84939 20.2733 8.80822 20.1473 8.79258 20.0169C8.77694 19.8865 8.78714 19.7543 8.8226 19.6278L13.2526 3.8398C13.288 3.71322 13.3481 3.59487 13.4293 3.49151C13.5105 3.38815 13.6113 3.30182 13.7259 3.23746C13.8405 3.1731 13.9667 3.13196 14.0972 3.1164C14.2278 3.10085 14.3601 3.11118 14.4866 3.1468ZM7.2076 7.0538C7.39507 7.24133 7.50039 7.49564 7.50039 7.7608C7.50039 8.02597 7.39507 8.28027 7.2076 8.4678L3.6726 12.0038L7.2076 15.5388C7.30051 15.6316 7.37422 15.7419 7.42453 15.8632C7.47484 15.9845 7.50076 16.1146 7.5008 16.2459C7.50085 16.3773 7.47502 16.5074 7.4248 16.6287C7.37458 16.7501 7.30094 16.8604 7.2081 16.9533C7.11525 17.0462 7.00502 17.1199 6.88369 17.1702C6.76235 17.2205 6.6323 17.2465 6.50095 17.2465C6.3696 17.2466 6.23953 17.2207 6.11816 17.1705C5.9968 17.1203 5.88651 17.0466 5.7936 16.9538L1.5506 12.7108C1.36313 12.5233 1.25781 12.269 1.25781 12.0038C1.25781 11.7386 1.36313 11.4843 1.5506 11.2968L5.7936 7.0538C5.98113 6.86633 6.23543 6.76101 6.5006 6.76101C6.76576 6.76101 7.02007 6.86633 7.2076 7.0538ZM16.7936 8.4678C16.6981 8.37555 16.6219 8.26521 16.5695 8.14321C16.5171 8.0212 16.4895 7.88998 16.4883 7.7572C16.4872 7.62442 16.5125 7.49274 16.5628 7.36985C16.6131 7.24695 16.6873 7.1353 16.7812 7.04141C16.8751 6.94751 16.9867 6.87326 17.1096 6.82298C17.2325 6.7727 17.3642 6.7474 17.497 6.74855C17.6298 6.7497 17.761 6.77729 17.883 6.8297C18.005 6.88211 18.1154 6.95829 18.2076 7.0538L22.4506 11.2968C22.6381 11.4843 22.7434 11.7386 22.7434 12.0038C22.7434 12.269 22.6381 12.5233 22.4506 12.7108L18.2076 16.9528C18.019 17.135 17.7664 17.2358 17.5042 17.2335C17.242 17.2312 16.9912 17.126 16.8058 16.9406C16.6204 16.7552 16.5152 16.5044 16.5129 16.2422C16.5106 15.98 16.6114 15.7274 16.7936 15.5388L20.3286 12.0038L16.7936 8.4678Z" fill="#8A96FF"/>
</g>
</g>
<defs>
<clipPath id="clip0_5515_32994">
<rect width="24" height="24" fill="white"/>
</clipPath>
</defs>
</svg>
