<svg width="25" height="24" viewBox="0 0 25 24" fill="none" xmlns="http://www.w3.org/2000/svg">
<g id="Menu / More_Vertical">
<path id="Vector" d="M6.19995 13C6.75224 13 7.19995 12.5523 7.19995 12C7.19995 11.4477 6.75224 11 6.19995 11C5.64767 11 5.19995 11.4477 5.19995 12C5.19995 12.5523 5.64767 13 6.19995 13Z" stroke="#868991" stroke-width="2" stroke-linecap="round" stroke-linejoin="round"/>
<path id="Vector_2" d="M12.2 13C12.7522 13 13.2 12.5523 13.2 12C13.2 11.4477 12.7522 11 12.2 11C11.6477 11 11.2 11.4477 11.2 12C11.2 12.5523 11.6477 13 12.2 13Z" stroke="#868991" stroke-width="2" stroke-linecap="round" stroke-linejoin="round"/>
<path id="Vector_3" d="M18.2 13C18.7522 13 19.2 12.5523 19.2 12C19.2 11.4477 18.7522 11 18.2 11C17.6477 11 17.2 11.4477 17.2 12C17.2 12.5523 17.6477 13 18.2 13Z" stroke="#868991" stroke-width="2" stroke-linecap="round" stroke-linejoin="round"/>
</g>
</svg>
