<svg width="23" height="24" viewBox="0 0 23 24" fill="none" xmlns="http://www.w3.org/2000/svg">
<g id="iwwa:option-horizontal">
<g id="Group">
<path id="Vector" d="M17.8325 13.7909C17.5975 13.791 17.3647 13.7447 17.1475 13.6549C16.9303 13.565 16.7329 13.4332 16.5667 13.267C16.4004 13.1009 16.2685 12.9036 16.1785 12.6864C16.0884 12.4693 16.0421 12.2366 16.042 12.0015C16.0419 11.7664 16.0881 11.5336 16.178 11.3164C16.2679 11.0993 16.3997 10.9019 16.5659 10.7356C16.732 10.5693 16.9293 10.4374 17.1464 10.3474C17.3636 10.2574 17.5963 10.211 17.8314 10.2109C18.3061 10.2108 18.7615 10.3992 19.0973 10.7348C19.4331 11.0704 19.6218 11.5256 19.6219 12.0003C19.6221 12.4751 19.4337 12.9304 19.0981 13.2662C18.7625 13.602 18.3073 13.7907 17.8325 13.7909Z" fill="#E1E4EB"/>
<path id="Vector_2" d="M11.6893 13.7897C12.6776 13.7897 13.4787 12.9886 13.4787 12.0003C13.4787 11.0121 12.6776 10.2109 11.6893 10.2109C10.701 10.2109 9.8999 11.0121 9.8999 12.0003C9.8999 12.9886 10.701 13.7897 11.6893 13.7897Z" fill="#E1E4EB"/>
<path id="Vector_3" d="M5.54477 13.7897C6.53303 13.7897 7.33417 12.9886 7.33417 12.0003C7.33417 11.0121 6.53303 10.2109 5.54477 10.2109C4.55651 10.2109 3.75537 11.0121 3.75537 12.0003C3.75537 12.9886 4.55651 13.7897 5.54477 13.7897Z" fill="#E1E4EB"/>
</g>
</g>
</svg>
