<svg width="24" height="24" viewBox="0 0 24 24" fill="none" xmlns="http://www.w3.org/2000/svg">
<g id="pepicons-print:internet" clip-path="url(#clip0_5642_13790)">
<g id="Group">
<path id="Vector" opacity="0.2" d="M13.8016 23.9937C11.0964 23.9937 8.50194 22.9191 6.58907 21.0062C4.6762 19.0934 3.60156 16.499 3.60156 13.7937C3.60156 11.0885 4.6762 8.49413 6.58907 6.58126C8.50194 4.66839 11.0964 3.59375 13.8016 3.59375C16.5068 3.59375 19.1012 4.66839 21.0141 6.58126C22.9269 8.49413 24.0016 11.0885 24.0016 13.7937C24.0016 16.499 22.9269 19.0934 21.0141 21.0062C19.1012 22.9191 16.5068 23.9937 13.8016 23.9937Z" fill="#8A96FF"/>
<path id="Vector_2" fill-rule="evenodd" clip-rule="evenodd" d="M1.80078 11.9969C1.80078 13.3364 2.06461 14.6627 2.57721 15.9002C3.08981 17.1378 3.84113 18.2622 4.78829 19.2094C5.73545 20.1565 6.85989 20.9078 8.09741 21.4204C9.33493 21.933 10.6613 22.1969 12.0008 22.1969C13.3403 22.1969 14.6666 21.933 15.9042 21.4204C17.1417 20.9078 18.2661 20.1565 19.2133 19.2094C20.1604 18.2622 20.9118 17.1378 21.4244 15.9002C21.9369 14.6627 22.2008 13.3364 22.2008 11.9969C22.2008 9.29167 21.1261 6.69726 19.2133 4.78439C17.3004 2.87151 14.706 1.79687 12.0008 1.79688C9.29557 1.79687 6.70116 2.87151 4.78829 4.78439C2.87542 6.69726 1.80078 9.29167 1.80078 11.9969ZM21.0008 11.9969C21.0008 14.3838 20.0526 16.673 18.3647 18.3608C16.6769 20.0487 14.3877 20.9969 12.0008 20.9969C9.61383 20.9969 7.32465 20.0487 5.63682 18.3608C3.94899 16.673 3.00078 14.3838 3.00078 11.9969C3.00078 9.60993 3.94899 7.32074 5.63682 5.63291C7.32465 3.94509 9.61383 2.99687 12.0008 2.99687C14.3877 2.99687 16.6769 3.94509 18.3647 5.63291C20.0526 7.32074 21.0008 9.60993 21.0008 11.9969Z" fill="#8A96FF"/>
<path id="Vector_3" fill-rule="evenodd" clip-rule="evenodd" d="M7.80078 11.9984C7.80078 17.2736 9.53118 21.5984 12.0008 21.5984C14.4704 21.5984 16.2008 17.2736 16.2008 11.9984C16.2008 6.72324 14.4704 2.39844 12.0008 2.39844C9.53118 2.39844 7.80078 6.72324 7.80078 11.9984ZM15.0008 11.9984C15.0008 16.6652 13.5068 20.3984 12.0008 20.3984C10.4948 20.3984 9.00078 16.6652 9.00078 11.9984C9.00078 7.33164 10.4948 3.59844 12.0008 3.59844C13.5068 3.59844 15.0008 7.33164 15.0008 11.9984Z" fill="#8A96FF"/>
<path id="Vector_4" d="M4.48239 6.37477L5.28639 5.48438C5.41479 5.59958 5.55159 5.71237 5.69799 5.82157C7.27959 7.00717 9.77559 7.72957 12.496 7.72957C14.8156 7.72957 16.9804 7.20517 18.562 6.30157C18.9264 6.09539 19.2707 5.85555 19.5904 5.58517L20.3704 6.49717C20.0128 6.80317 19.6072 7.08517 19.1584 7.34197C17.386 8.35597 15.016 8.92957 12.496 8.92957C9.53199 8.92957 6.78159 8.13397 4.97799 6.78157C4.80661 6.65326 4.64124 6.51831 4.48239 6.37477ZM4.48239 17.6404L5.28639 18.5284C5.41479 18.4132 5.55159 18.3004 5.69799 18.1924C7.27959 17.0068 9.77559 16.2844 12.496 16.2844C14.8156 16.2844 16.9804 16.8076 18.562 17.7124C18.9472 17.9332 19.2916 18.1732 19.5904 18.4276L20.3704 17.5156C19.9937 17.1967 19.5879 16.9139 19.1584 16.6708C17.386 15.658 15.016 15.0844 12.496 15.0844C9.53199 15.0844 6.78159 15.88 4.97799 17.2312C4.80279 17.3632 4.63719 17.5 4.48239 17.6404ZM2.40039 12.6004V11.4004H21.6004V12.6004H2.40039Z" fill="#8A96FF"/>
</g>
</g>
<defs>
<clipPath id="clip0_5642_13790">
<rect width="24" height="24" fill="white"/>
</clipPath>
</defs>
</svg>
