<svg width="27" height="27" viewBox="0 0 27 27" fill="none" xmlns="http://www.w3.org/2000/svg">
<path opacity="0.2" d="M22.7242 22.7815H4.27563C2.94461 22.7815 2.1093 21.3882 2.75582 20.2597L11.9801 4.24219C12.6446 3.08203 14.3553 3.08203 15.0197 4.24219L24.244 20.2597C24.8905 21.3882 24.0552 22.7815 22.7242 22.7815Z" fill="#FFA500"/>
<path d="M24.9752 19.8377L15.7519 3.82015C15.5214 3.42772 15.1924 3.10235 14.7974 2.87627C14.4025 2.65018 13.9553 2.53125 13.5002 2.53125C13.0451 2.53125 12.5979 2.65018 12.2029 2.87627C11.8079 3.10235 11.4789 3.42772 11.2484 3.82015L2.02515 19.8377C1.80339 20.2172 1.68652 20.6489 1.68652 21.0885C1.68652 21.5281 1.80339 21.9598 2.02515 22.3394C2.25268 22.7342 2.58115 23.0614 2.97686 23.2873C3.37257 23.5132 3.82127 23.6298 4.27691 23.6251H22.7234C23.1787 23.6294 23.6269 23.5127 24.0222 23.2867C24.4176 23.0608 24.7457 22.7339 24.973 22.3394C25.1951 21.96 25.3124 21.5284 25.3127 21.0888C25.3131 20.6492 25.1966 20.2174 24.9752 19.8377ZM23.5123 21.4946C23.4319 21.6318 23.3165 21.7451 23.1778 21.8229C23.0392 21.9007 22.8824 21.9403 22.7234 21.9376H4.27691C4.11795 21.9403 3.96111 21.9007 3.82248 21.8229C3.68385 21.7451 3.56841 21.6318 3.48801 21.4946C3.41517 21.3713 3.37676 21.2307 3.37676 21.0875C3.37676 20.9443 3.41517 20.8037 3.48801 20.6804L12.7112 4.66284C12.7933 4.52634 12.9092 4.41338 13.0478 4.33496C13.1865 4.25655 13.343 4.21533 13.5023 4.21533C13.6615 4.21533 13.8181 4.25655 13.9567 4.33496C14.0953 4.41338 14.2112 4.52634 14.2933 4.66284L23.5165 20.6804C23.5887 20.8041 23.6264 20.9449 23.6257 21.0881C23.6249 21.2313 23.5858 21.3717 23.5123 21.4946ZM12.6564 15.1876V10.9688C12.6564 10.745 12.7453 10.5304 12.9035 10.3722C13.0618 10.214 13.2764 10.1251 13.5002 10.1251C13.7239 10.1251 13.9385 10.214 14.0968 10.3722C14.255 10.5304 14.3439 10.745 14.3439 10.9688V15.1876C14.3439 15.4113 14.255 15.626 14.0968 15.7842C13.9385 15.9424 13.7239 16.0313 13.5002 16.0313C13.2764 16.0313 13.0618 15.9424 12.9035 15.7842C12.7453 15.626 12.6564 15.4113 12.6564 15.1876ZM14.7658 18.9844C14.7658 19.2348 14.6916 19.4795 14.5525 19.6876C14.4134 19.8957 14.2157 20.0579 13.9845 20.1537C13.7532 20.2495 13.4987 20.2746 13.2532 20.2258C13.0077 20.1769 12.7822 20.0564 12.6052 19.8794C12.4282 19.7024 12.3077 19.4769 12.2588 19.2314C12.21 18.9858 12.2351 18.7314 12.3309 18.5001C12.4267 18.2688 12.5889 18.0712 12.797 17.9321C13.0051 17.793 13.2498 17.7188 13.5002 17.7188C13.8358 17.7188 14.1577 17.8522 14.3951 18.0895C14.6324 18.3269 14.7658 18.6488 14.7658 18.9844Z" fill="#FFA500"/>
</svg>
