<svg width="24" height="24" viewBox="0 0 24 24" fill="none" xmlns="http://www.w3.org/2000/svg">
<g id="File / Folder_Open">
<path id="Vector" d="M21 20L4 20C3.44772 20 3 19.5523 3 19L3 6L20 6C20.5523 6 21 6.44772 21 7V13" stroke="#585A60" stroke-width="2" stroke-linecap="round" stroke-linejoin="round"/>
<path id="Vector_2" d="M4.32483 20L20.2448 20C20.6913 20 21.0837 19.704 21.2063 19.2747L22.6349 14.2747C22.8174 13.6359 22.3377 13 21.6734 13L4.9991 13L3.3633 18.7253C3.18078 19.3641 3.66045 20 4.32483 20Z" stroke="#585A60" stroke-width="2" stroke-linecap="round" stroke-linejoin="round"/>
<path id="Vector_3" d="M12 6L10.2929 4.29289C10.1054 4.10536 9.851 4 9.58579 4H4C3.44772 4 3 4.44772 3 5V6" stroke="#585A60" stroke-width="2" stroke-linecap="round" stroke-linejoin="round"/>
</g>
</svg>
