<svg width="20" height="21" viewBox="0 0 20 21" fill="none" xmlns="http://www.w3.org/2000/svg">
<g id="Vector">
<path id="Vector_2" d="M14.36 12.5C14.44 11.84 14.5 11.18 14.5 10.5C14.5 9.82 14.44 9.16 14.36 8.5H17.74C17.9 9.14 18 9.81 18 10.5C18 11.19 17.9 11.86 17.74 12.5M12.59 18.06C13.19 16.95 13.65 15.75 13.97 14.5H16.92C15.9512 16.1683 14.4141 17.432 12.59 18.06ZM12.34 12.5H7.66C7.56 11.84 7.5 11.18 7.5 10.5C7.5 9.82 7.56 9.15 7.66 8.5H12.34C12.43 9.15 12.5 9.82 12.5 10.5C12.5 11.18 12.43 11.84 12.34 12.5ZM10 18.46C9.17 17.26 8.5 15.93 8.09 14.5H11.91C11.5 15.93 10.83 17.26 10 18.46ZM6 6.5H3.08C4.03886 4.82721 5.5748 3.56149 7.4 2.94C6.8 4.05 6.35 5.25 6 6.5ZM3.08 14.5H6C6.35 15.75 6.8 16.95 7.4 18.06C5.57862 17.4317 4.04485 16.1677 3.08 14.5ZM2.26 12.5C2.1 11.86 2 11.19 2 10.5C2 9.81 2.1 9.14 2.26 8.5H5.64C5.56 9.16 5.5 9.82 5.5 10.5C5.5 11.18 5.56 11.84 5.64 12.5M10 2.53C10.83 3.73 11.5 5.07 11.91 6.5H8.09C8.5 5.07 9.17 3.73 10 2.53ZM16.92 6.5H13.97C13.657 5.26146 13.1936 4.0659 12.59 2.94C14.43 3.57 15.96 4.84 16.92 6.5ZM10 0.5C4.47 0.5 0 5 0 10.5C0 13.1522 1.05357 15.6957 2.92893 17.5711C3.85752 18.4997 4.95991 19.2362 6.17317 19.7388C7.38642 20.2413 8.68678 20.5 10 20.5C12.6522 20.5 15.1957 19.4464 17.0711 17.5711C18.9464 15.6957 20 13.1522 20 10.5C20 9.18678 19.7413 7.88642 19.2388 6.67317C18.7362 5.45991 17.9997 4.35752 17.0711 3.42893C16.1425 2.50035 15.0401 1.76375 13.8268 1.2612C12.6136 0.758658 11.3132 0.5 10 0.5Z" fill="#E1E4EB"/>
</g>
</svg>
